<svg xmlns="http://www.w3.org/2000/svg" width="100" height="200" viewBox="0 0 100 200"><rect width="100%" height="100%" fill="#DDDDDD"/><path fill="#999999" d="M20.21 101.41h2.31v.89h-3.39v-5.78h1.08zm4.74-3.28q.45 0 .83.15.37.15.64.42.26.27.41.66.14.4.14.88 0 .49-.14.88-.15.39-.41.67-.27.27-.64.42-.38.15-.83.15-.46 0-.84-.15t-.64-.42q-.27-.28-.41-.67-.15-.39-.15-.88 0-.48.15-.88.14-.39.41-.66.26-.27.64-.42t.84-.15m0 3.47q.51 0 .75-.34.25-.35.25-1.01 0-.67-.25-1.01-.24-.35-.75-.35-.52 0-.77.35t-.25 1.01.25 1q.25.35.77.35m3.65-3.16.06.47q.19-.37.45-.58.27-.21.63-.21.28 0 .45.12l-.06.74q-.02.08-.06.11t-.1.03-.18-.02-.23-.02q-.16 0-.29.04-.13.05-.23.14t-.18.22-.15.29v2.53h-.98v-4.1h.58q.15 0 .21.05t.08.19m2.89 1.34h1.86q0-.2-.05-.37t-.16-.29q-.11-.13-.28-.21-.16-.07-.38-.07-.43 0-.68.24-.24.25-.31.7m2.52.59h-2.54q.02.32.11.55t.23.38q.15.15.35.22.19.08.43.08t.42-.06q.17-.06.3-.12.13-.07.23-.13.1-.05.19-.05.12 0 .18.09l.29.36q-.17.19-.37.32t-.43.21q-.22.08-.45.11t-.44.03q-.43 0-.8-.14t-.64-.42-.43-.69q-.15-.41-.15-.95 0-.42.13-.79.14-.37.39-.64.26-.28.62-.44.37-.16.83-.16.39 0 .71.13.33.12.57.36.23.24.37.58.13.35.13.79 0 .23-.05.3-.04.08-.18.08m1.96 1.93h-.99v-4.1h.61q.19 0 .25.18l.06.3q.11-.12.23-.22t.25-.17.29-.12q.15-.04.34-.04.38 0 .63.21t.38.56q.09-.2.24-.35.14-.15.31-.24.18-.09.37-.13.19-.05.39-.05.34 0 .6.11.27.1.45.3t.27.49q.1.29.1.66v2.61h-.99v-2.61q0-.39-.17-.59-.18-.2-.51-.2-.15 0-.28.05t-.23.15-.15.25q-.06.15-.06.34v2.61h-.99v-2.61q0-.41-.17-.6-.16-.19-.48-.19-.22 0-.4.11-.19.1-.35.29zm8.89-5.78v5.78h-1.08v-5.78zm2.13 2.88v1.84q.16.2.36.28.2.09.43.09t.41-.09q.18-.08.3-.25.13-.17.2-.44.06-.26.06-.61 0-.36-.05-.61-.06-.25-.17-.41t-.26-.23q-.16-.07-.35-.07-.31 0-.53.13-.21.13-.4.37m-.14-1.02.08.38q.26-.29.58-.46.32-.18.75-.18.33 0 .61.14t.48.41q.2.26.31.65t.11.9q0 .46-.12.85t-.35.68-.56.45-.73.16q-.34 0-.59-.11-.24-.1-.43-.29v1.68H46V98.2h.6q.19 0 .25.18m6.42.26-.22.36q-.04.06-.09.09-.04.02-.11.02t-.15-.04q-.09-.04-.19-.09-.11-.05-.25-.09t-.33-.04q-.29 0-.45.13-.17.12-.17.32 0 .13.09.22.08.09.22.16.15.07.33.12l.36.12q.19.06.37.15.18.08.32.2.14.13.23.31.08.17.08.42 0 .3-.1.55-.11.25-.32.43-.2.18-.51.28t-.71.1q-.21 0-.41-.03-.2-.04-.39-.11-.18-.07-.34-.16t-.28-.2l.23-.38q.04-.06.1-.1t.15-.04q.1 0 .18.06.08.05.19.11t.25.11q.15.05.37.05.18 0 .3-.04.13-.04.21-.11t.12-.16.04-.18q0-.15-.09-.24-.08-.09-.22-.16-.15-.07-.33-.12-.18-.06-.37-.12t-.37-.15-.33-.22q-.14-.13-.22-.32-.09-.19-.09-.47 0-.25.1-.48.1-.22.29-.39.2-.17.49-.28.29-.1.67-.1.42 0 .77.14t.58.37m3.34-.44h.98v4.1h-.6q-.2 0-.25-.18l-.07-.33q-.25.26-.55.42-.31.15-.72.15-.33 0-.59-.11t-.44-.32q-.17-.21-.26-.5-.09-.28-.09-.63v-2.6h.99v2.6q0 .38.17.59.17.2.52.2.26 0 .48-.11.23-.12.43-.32zm2.95 4.1h-.99v-4.1h.6q.2 0 .26.18l.06.3q.11-.12.23-.22.11-.1.25-.17.13-.07.29-.12.15-.04.33-.04.39 0 .64.21t.38.56q.09-.2.24-.35.14-.15.31-.24t.37-.13q.19-.05.39-.05.34 0 .6.11.27.1.45.3t.27.49.09.66v2.61h-.98v-2.61q0-.39-.18-.59-.17-.2-.5-.2-.15 0-.28.05t-.23.15-.15.25q-.06.15-.06.34v2.61h-.99v-2.61q0-.41-.17-.6-.16-.19-.48-.19-.22 0-.41.11-.18.1-.34.29zm11.46-4.93h-2.57v1.71h2.17v.86h-2.17v2.36h-1.08v-5.78h3.65zm.75.83h1v4.1h-1zM72.9 97q0 .13-.05.24t-.14.2q-.08.08-.2.13t-.25.05-.24-.05-.2-.13q-.08-.09-.13-.2t-.05-.24.05-.25q.05-.11.13-.2.09-.08.2-.13t.24-.05.25.05.2.13q.09.09.14.2.05.12.05.25m3.6 1.64-.22.36q-.04.06-.09.09-.04.02-.11.02t-.15-.04-.19-.09-.25-.09-.32-.04q-.3 0-.46.13-.17.12-.17.32 0 .13.09.22.08.09.23.16.14.07.32.12l.36.12q.19.06.37.15.18.08.32.2.14.13.23.31.09.17.09.42 0 .3-.11.55t-.31.43q-.21.18-.52.28-.3.1-.7.1-.22 0-.42-.03-.2-.04-.39-.11-.18-.07-.34-.16t-.28-.2l.23-.38q.04-.06.1-.1t.16-.04q.09 0 .17.06.08.05.19.11t.25.11q.15.05.37.05.18 0 .31-.04.12-.04.2-.11.09-.07.12-.16.04-.09.04-.18 0-.15-.08-.24-.09-.09-.23-.16t-.33-.12q-.18-.06-.37-.12t-.37-.15-.32-.22q-.15-.13-.23-.32-.09-.19-.09-.47 0-.25.1-.48.1-.22.3-.39.19-.17.48-.28.29-.1.67-.1.42 0 .77.14t.58.37m1.78-2.28v2.28q.24-.23.53-.37.28-.14.67-.14.34 0 .6.12.26.11.43.32.18.2.27.49.09.28.09.63v2.61h-.99v-2.61q0-.38-.17-.58-.18-.21-.53-.21-.25 0-.48.12-.22.11-.42.31v2.97h-.99v-5.94z"/></svg>